<?xml version="1.0" encoding="UTF-8"?>
<svg id="Layer_1" xmlns="http://www.w3.org/2000/svg" version="1.1" viewBox="0 0 500 500">
  <!-- Generator: Adobe Illustrator 29.1.0, SVG Export Plug-In . SVG Version: 2.1.0 Build 142)  -->
  <path d="M408.86,64.31c85.55,75.28,109.56,203.82,54.62,304.56-68.27,125.18-227.4,166.69-346.08,83.78C9.5,377.29-18.54,231.56,50.65,119.58,128.39-6.22,296.45-34.61,408.86,64.31ZM92.36,422.04c110.45,106.76,285.24,79.91,361.48-51.81,65.37-112.94,25.14-261.32-86.62-326.81C264.64-16.66,135.4,13.39,66.96,108.87-2.38,205.61,6.27,338.83,92.36,422.04Z" fill="#fff"/>
  <path d="M305.07,301.17c-.16-1.42-1.03-4.92-2.29-5.73-.41,7.05-.8,13.91-3.59,20.46-4.05,9.51-13.11,17.62-22.52,21.68,1.32-2.99,3.17-5.77,4.09-8.96.54-1.86,1.31-5.45,1.4-7.31.04-.95.28-1.31-.91-1.14-2.48,9.21-9.5,17.47-17.35,22.74-2.13,1.43-9.89,5.95-12.08,5.58-1.2-.2-4.13-1.79-5.4-2.43-10.17-5.16-19.6-14.81-22.9-25.89-.83.29-.51,2.72-.45,3.43.5,5.2,2.95,9.36,5.03,13.98-16.87-7.33-26.96-23.62-25.65-42.14-1.68-.03-2.01,2.64-2.24,3.94-.61,3.48-.44,7.3.41,10.71-1.08.14-1.81-1.73-2.3-2.51-8.7-13.94-6.88-31.49-3.17-46.72-.18-1.14-2.95-2.44-3.93-3.43-7.26-7.33-14.9-30.54-.02-33.89l.26-.94c-6.55-3.92-10.1-12.05-9.66-19.66-6.09-1.37-15.7-4.92-19.9-9.64-3.33-3.73-.95-5.38,1.87-7.8,6.36-5.46,16.47-10.61,21.97-16.05,1.48-1.46,2.3-3.41,2.85-5.4,4.43-16.17,5.17-34.93,9.62-51.3,3.47-9.45,24.05-13.5,32.95-14.69,12.73-1.7,26.54-1.87,39.32-.52,9.54,1,33.67,5.29,36.76,15.92,3.81,13.13,5.29,29.97,8.05,43.71.83,4.12,1.16,9.83,4.22,12.73,6.16,5.84,16.41,10.56,22.89,16.51,5.19,4.76-1.18,8.73-5.3,11.18-4.37,2.6-9.23,3.94-13.95,5.74-.18,7.24-3.09,15.36-9.37,19.27l.28.94c10.11,3.12,9.28,12.61,6.81,21.04-1.92,6.55-5.43,12.33-11.06,16.25,1.09,5.06,2.49,10.45,3.04,15.6,1.2,11.28-.93,24.8-8.24,33.66-.33-.74.45-1.71.45-2.06,0-2.14.23-4.83,0-6.87ZM310.11,167.65c-37.11,11.09-77.86,11.17-114.97,0,1.89,1.57,4.69,2.47,6.98,3.33,29.36,10.94,66.85,10.89,96.65,1.58,2.76-.86,7.47-2.5,9.97-3.77.53-.27,1.27-.42,1.38-1.13ZM303.69,206.59l-22.67,2.28c-19.67.96-39.44,1.41-59.1.02-6.77-.48-13.6-1.57-20.34-2.3-.75,3.62-1.19,7.5-.93,11.21.16,2.26,1.35,5.43,1.37,7.33.01,1.47-.83,3.49-.91,5.05-.35,7.38.34,23.81,4.65,29.69,2.29,3.12,9.23,8.06,9.56,11.53.55,5.72-5.16,5.4-9.16,5.01-2.2-.21-.31,1.2.57,1.73,7.82,4.71,15.45-4.2,21.25-8.26,15.86-11.1,32.66-10.92,48.57-.19,5.25,3.54,10.99,10.03,17.77,9.75,1.92-.08,4.93-1.01,5.26-3.24-3.38,1.39-10.22.33-10.06-4.31.11-3.22,5.94-7.44,8-9.89,8.25-9.79,5.69-24.65,5.68-36.42,0-2.17.86-4.66.98-6.85.08-1.62.08-11.6-.49-12.15ZM195.59,252.84l-.51-19.87c-.38-1.94-.46-3.72-2.88-3.49-6.06.58-1.88,15.14-.36,18.63.22.5,2.77,5.85,3.74,4.72ZM315.02,230.53c-1.55-1.54-4.32-1.22-4.81,1.11l-.55,21.66c1-.53,1.77-1.49,2.38-2.43,2.21-3.45,6.05-17.31,2.99-20.34ZM273.32,284.14c-3.94-4.63-15.96-3.52-20.7-8.69-1.91.66-3.31,2.13-5.14,2.94-4.52,2.01-14.7,2.21-16.65,7.17-2.74,6.96,6.05,12.7,11.71,8.5,2.57-1.9,4.23-6.18.23-6.87-.12-.62.16-1.1.77-1.29.72-.23,5.14-.51,6.31-.56,1.65-.07,12.32.12,12.62,1.17.33,1.13-1.31.39-2.08,1.13-1.38,1.32-.44,3.68.5,5.02,2.76,3.93,8.92,3.55,11.89.05,1.84-2.16,2.44-6.32.52-8.57Z" fill="#fff"/>
  <path d="M355.92,238.19l-2.19,3.07c.19,11.53,3.68,23.03,5.16,34.49l.69.45,6.37-34.63c0-1.62,5.02-1.3,5.57-.9l6.15,35.53c.72-.48.61-1.26.78-1.97,2.63-10.88,3.68-36.17,13.5-42.38,7.2-4.56,17.19-.09,11.6,8.63-1.08-.37-.79-1.68-1.35-2.54-1.24-1.91-5.77-1.36-7.51-.14-4.8,3.35-7.47,17.14-8.78,22.83-2.42,10.58-4.39,21.4-6.18,32.07l-6.2-.44-6.16-32.08-6.62,32.55c-1.3-.31-5.19.67-5.67-.79l-9.24-50.08c-2.44-.24-4.74.12-6.44,2.04-2.93,3.31-1.11,8.96,3.69,7.13.37,4.69-4.25,6.32-8.1,4.67-5.6-2.4-5.05-10.87-1.16-14.75.65-.65,4.2-2.75,4.91-2.75h17.18Z" fill="#fff"/>
  <path d="M62.85,257.5l-.05,1.25c17.57,8.43,12.61,33.26-5.71,37.67-22.35,5.38-36.68-21.46-12.64-30.14-.57-6.37.7-13.85-.02-20.08-.21-1.82-1.21-3.16-1.83-4.8,2.83.57,5.41.88,8.11-.37.94-.44,1.33-1.54,2.42-1.46.18,1.6-1.13,2.95-1.34,4.38-.24,1.59-.43,5.12-.48,6.84-.02.9-.13,5.48.73,5.69,17.58-3.2,10.47-26.63-6.94-20.6-4.84,1.68-9.54,8.6-6.55,13.47.62,1.01,2.82,2.07,2.66,2.78-5.05,5.34-11.23.22-10.87-6.24.87-15.67,26.69-20.89,36.28-9.5,5.33,6.33,3.49,17.17-3.77,21.11ZM51.31,272.77c-.36,1.3,0,6,0,7.79,0,1.43,1.41,4.06,2.29,5.26-3.93-1.17-7.24,0-10.99.92-.45-.41,1.83-2.89,1.83-3.43v-10.76c-3.47.17-5.71,4.51-5.95,7.56-1.27,16.13,26.6,16.34,27.95-2.74.52-7.34-3.65-15.67-11.7-16.27-5.17-.39-2.72,1.32-3.3,4.82l.3.44c8.98.48,13.94,12.24,3.23,14.43-.31-1.46.88-2.54.95-3.9.14-2.84-4.07-6.08-4.62-4.12Z" fill="#fff"/>
  <path d="M402.64,247.81v.68c-.6.47-1.83,2.11-1.83,2.75v11.22h9.16v-11.22c0-1.1-1.93-2.39-1.83-3.44h10.08c-.69,1.76-1.59,2.26-1.83,4.35-.49,4.28-.6,27.02.36,30.34.43,1.48,1.49,1.15,1.47,2.41h-10.08v-.91c.84.41,1.83-2.19,1.83-2.53v-14.43c-2.99.64-6.6-1.57-9.16.23v15.12c0,.13,1.28,1.89,1.82,1.61v.91s-10.07,0-10.07,0c-.13-1.03.91-1.29,1.25-2.18,1.03-2.61,1.01-25.81.58-29.66-.23-2.07-1.36-3.37-1.83-5.27h10.08Z" fill="#fff"/>
  <path d="M156.66,247.81c.2,1.07-1.04,1.31-1.28,2.15-.87,3.05-.32,6.54-.07,9.55.09,1.05-1.08,2.46.43,2.96,1.08-3.44,6.48-8.73,7.14-11.91.27-1.29-.8-1.6-.72-2.75h9.16c-3.33,3.77-6.28,8.02-8.6,12.52,2.89,6.32,4.14,13.73,7.01,20,.39.85.85,2.03,1.38,2.75.66.91,1.84.56,1.59,1.84h-9.85l-.45-.9c.21-.24.55-.54.6-.83.19-1.08-4.28-16.06-4.96-16.6-.99.56-2.24,2.05-2.67,3.05-.92,2.15-.8,10.81.05,13.09.34.91,1.39,1.13,1.26,2.18h-10.08c-.03-1.09,1-1.46,1.41-2.48.81-2.05.76-29.67,0-32.13-.32-1.01-.88-1.64-1.4-2.49h10.08Z" fill="#fff"/>
  <path d="M113.14,247.81c2.57,10.42,4.23,21.91,7.56,32.06.75,2.29,1.22,3.31,2.97,5.04h-10.31l-.47-.92c2.32-1.79.61-6.48-.45-8.7h-8.47c-.25,2.35-1.93,5.98-1.07,8.15.31.78,1.45.22,1.07,1.46h-8.25c.68-1.57,1.46-2.37,2.06-4.12,3.19-9.21,4.13-20.26,7.01-29.68.4-1.38-.67-2.25-1.28-3.3h9.62ZM104.9,271.17h6.87l-3.44-15.12-3.43,15.12Z" fill="#fff"/>
  <path d="M477.76,247.81c.22,2.32.52,4.63.6,6.98,0,.21.44,1.32-.37,1.26-.28-.02-1.8-3.06-4.23-3.55-1.73-.35-5.61-.46-7,.58v9.39c3.23-.03,5.78.76,7.79-2.29v9.16c-1.82-2.32-5.1-3.93-7.79-2.06v12.37c1.52,1.09,5.49.92,7.36.49,2.24-.52,2.96-2.15,4.54-3.47l-1.14,8.24h-18.55c-.09-.87.66-1.25.9-2.08,1.1-3.81,1.01-26.44.47-31.13-.19-1.69-.93-2.42-1.37-3.89h18.78Z" fill="#fff"/>
  <path d="M144.29,282.39c-3.25,2.53-6.44,3.45-10.56,2.77-15.29-2.5-15.44-37.3,1.84-38.05,3.02-.13,5.33,1.72,8.26.7l.46,10.53c-1.07.23-.74-.14-1.03-.59-1.57-2.46-2.21-5.61-6.11-5.79-9.79-.44-9.07,20.34-4.98,26.05,1.99,2.78,4.3,3.3,7.38,1.93,2.59-1.15,2.41-2.5,3.7-4.52.29-.45-.05-.81,1.03-.59v7.56Z" fill="#fff"/>
  <path d="M456.23,247.81l.91,8.7c-1.05.26-.75-.19-1.05-.58-.78-1.01-.92-2.04-2.29-2.73-.89-.45-5.37-1.49-5.37-.13v28.4c0,.33.99,2.93,1.82,2.53v.91s-10.07,0-10.07,0c.19-1.24,1.83-2.56,1.83-3.89v-28.63l-5.07,1.12-3.18,3,.91-8.7h21.53Z" fill="#fff"/>
  <path d="M85.2,247.81v.68c-.6.47-1.83,2.11-1.83,2.75v28.4l.76.61c3.73.02,8.73.35,10-4.05.74.48.51.72.5,1.36-.04,2.09-.57,5.59-1.41,7.34h-18.09c.28-1.32,1.12-2,1.33-3.48.81-5.7.74-24.41.05-30.2-.2-1.66-1.09-2.01-1.38-3.42h10.08Z" fill="#fff"/>
  <path d="M431.95,247.81c-2.84,3.18-1.62,7.32-1.81,11.24-.36,7.28-.89,15.12-.03,22.44.19,1.66,1.09,2.01,1.38,3.42h-9.62c-.04-1.1,1.02-1.53,1.28-2.61,1.05-4.42.53-14.46.57-19.58.04-4.97.31-10.4-1.85-14.91h10.08Z" fill="#fff"/>
  <path d="M182.57,410.69c-.54.69-2.69,1.92-2.52,2.65l3.88,3.94c.96.36,1.13-2.58,1.64-3.16l3.16.43-1.82,5.28c.03,2.05,4.39,1.43.86,5.21-1.03.41-2.22-2.16-3.39-2.09-.2.01-2.55,1.49-3.54,1.81-10.33,3.37-17.28-6.35-7.27-12.72-1.54-1.96-2.68-3.94-1.81-6.43,2.47-7.13,17.14-3.01,10.81,5.1ZM176.01,405.49c-1.02,1.02-.59,3.65.55,4.51,2.01,1.5,5.34-2.3,3.47-4.4-.82-.83-3.21-.92-4.02-.11ZM181.85,420.95c.54-.74-5.01-5.53-5.79-6.37-7.92,4.92-.38,9.88,5.79,6.37Z" fill="#fff"/>
  <path d="M156.66,360.49c4.66.34,9-1.33,13.53.44,4.17,1.62,4.52,6.35,1.13,8.96v.67c6.25,2.27,2.57,10.54-2.98,10.54h-11.68v-20.61ZM160.32,368.73h7.56c1.63,0,2.23-3.23,1.16-4.36-1.18-1.2-6.5-.65-8.28-.48l-.43,4.84ZM160.78,377.89h7.1c2.01,0,3.36-2.85,2.29-4.59-.11-.18-2.16-1.37-2.29-1.37h-7.1v5.95Z" fill="#fff"/>
  <path d="M349.34,372.7c-.46.55-1.71.88-2.05,1.76l4.04,6.64c-1.15-.16-3.18.36-4.13-.22-.57-.35-2.6-4.57-3.43-5.27-1.24-1.04-4.52-.2-6.18-.46v5.96s-3.68-.21-3.68-.21l-.44-20.4c4.94.42,10.17-1.79,14.63,1.18,3.81,2.54,4.08,7.62,1.25,11.03ZM344.69,363.69c-1.91-.41-5.02.3-7.1,0v7.56c1.22,1.38,8.14.3,9.03-.82,1.66-2.08.74-6.17-1.93-6.74Z" fill="#fff"/>
  <path d="M216.21,418.2v6.87h-4.12v-22.9h11.68c.82,0,4.61,1.79,5.28,2.51,2.68,2.88,2.28,8.27-.51,10.96-.99.96-4.4,2.56-5.68,2.56h-6.64ZM223.77,405.84c-2.03-.44-5.35.32-7.56,0v8.7h6.64c.21,0,2.57-1.23,2.84-1.51,1.96-2.1.79-6.6-1.92-7.19Z" fill="#fff"/>
  <path d="M240.71,360.49c.3.06,2.62,1.28,3,1.58,3.78,2.97,3.01,10.03-1.44,12l4.16,7.04c-5.7,1.63-5.34-3.6-7.98-5.53-1.3-.95-4.14-.2-5.76-.43.08,3.67.9,7.93-4.12,5.27v-19.93c3.6.47,8.75-.63,12.14,0ZM232.7,364.84c.02,2.37-.01,4.74,0,7.1,2.86-1.03,7.59.82,9.05-2.17,1.21-2.46.32-5.46-2.52-5.97-1.22-.22-5.17-.34-6.25-.05s-.28.98-.28,1.09Z" fill="#fff"/>
  <path d="M328.38,402.22l9.67,22.85c-6.69,1.83-3.81-5.07-8.45-5.52-1.44-.14-7.55-.21-8.64.11-.64.19-.81.66-1.16,1.13-2.12,2.86-.42,5.18-6.03,4.28l9.83-22.46,4.77-.39ZM329.81,416.37c-.67-3.29-2.18-6.88-4.12-9.62l-3.67,9.62h7.79Z" fill="#fff"/>
  <path d="M260.18,425.07l-4.06-.06c-.23-.15-1.3-4.25-2.12-4.98-1.23-1.1-8.82-.18-10.93-.38l-2.65,5.36-4.06.06,9.67-22.85c1.49.05,4.02-.63,4.95.67l9.2,22.17ZM252.39,416.37c-1.33-3.23-2.21-6.96-4.58-9.62l-3.67,9.62h8.25Z" fill="#fff"/>
  <path d="M274.74,401.84c2.87-.28,6.64.34,8.76,2.44l-1.55,2.87c-2.39-2.21-11.87-2.97-10.58,1.9.94,3.53,11.82,2.33,12.98,8.1,1.88,9.31-12.87,10.49-17.69,5.33l1.53-2.91c2.37,2.27,10.94,4.27,12.07.12,1.28-4.69-10.4-3.55-12.53-8.37-2.36-5.34,1.94-9,7-9.49Z" fill="#fff"/>
  <path d="M304.61,363.69v5.04h9.39l.61.76-.38,2.71c-.33.27-.58-.27-.69-.27h-8.93v5.95h11.91c-.03,1.11.35,2.46-.69,3.21h-14.66l-.69-.69v-19.93l14.89-.33c1.12.49.95,2.92,0,3.54h-10.76Z" fill="#fff"/>
  <path d="M195.59,374.46c.55,3.1,5.3,4.28,7.96,2.92.58-.3,2.58-2.43,2.58-2.92v-13.74c.92-1.07,3.21-1.07,4.12,0v13.28c0,.19-1.21,3.21-1.44,3.6-3.08,5.23-12.96,5.09-16.06-.29-.29-.5-1.28-2.96-1.28-3.3v-13.28l.67-.51c.68-.06,3.45-.47,3.45.51,0,3.73-.58,10.46,0,13.74Z" fill="#fff"/>
  <path d="M282.17,378.12c-8.32,8.24-23.48.16-18.87-11.54,2.82-7.15,13.99-9.12,18.86-3.15l-2.5,2.47c-10.42-9.69-19.09,9.76-7.69,11.88,6.24,1.16,7.2-1.64,6.53-7.22h3.67v7.56Z" fill="#fff"/>
  <path d="M310.11,402.17l-.07,2.91-.61.76h-7.1v19.24h-4.12v-19.24h-7.1c-1.03-.82-1.07-2.78,0-3.66h19.01Z" fill="#fff"/>
  <path d="M143.31,369.72l.07,2.23c-3.2-.51-6.88.49-9.85.49-1.09,0-2.1-.51-3.19-.51-10.21,0-20.44.09-30.64-.05-.82-.11-1.14-2.12-.45-2.22,9.06-.75,18.3-.54,27.43-.48,1.85.01,3.62,0,5.46,0,1.69,0,10.68-.28,11.18.54Z" fill="#fff"/>
  <path d="M407.17,369.7l.05,2.24h-43.52s.07-2.23.07-2.23c.62-.31,1.3-.46,1.99-.52,10.03-.95,28.29-.72,38.5-.02,1,.07,1.95.31,2.91.53Z" fill="#fff"/>
</svg>